<?xml version="1.0" encoding="utf-8"?>
<!-- Generator: Adobe Illustrator 15.0.2, SVG Export Plug-In . SVG Version: 6.00 Build 0)  -->
<!DOCTYPE svg PUBLIC "-//W3C//DTD SVG 1.1//EN" "http://www.w3.org/Graphics/SVG/1.1/DTD/svg11.dtd">
<svg version="1.1" id="Layer_1" xmlns="http://www.w3.org/2000/svg" xmlns:xlink="http://www.w3.org/1999/xlink" x="0px" y="0px"
	 width="26.166px" height="21px" viewBox="0 0 26.166 21" enable-background="new 0 0 26.166 21" xml:space="preserve">
<g>
	<g>
		<path fill="#3D9630" d="M7.073,19.184l-6.251-6.252c-0.784-0.781-0.784-2.047,0-2.831c0.783-0.782,2.046-0.782,2.829,0l6.25,6.25
			c0.783,0.787,0.783,2.049,0,2.832C9.119,19.965,7.855,19.969,7.073,19.184z"/>
	</g>
	<g>
		<path fill="#3D9630" d="M25.343,3.792L10.289,18.85c-0.782,0.783-2.05,0.781-2.83,0c-0.781-0.785-0.781-2.047,0-2.828
			L22.517,0.963c0.781-0.784,2.045-0.784,2.826,0C26.128,1.744,26.128,3.01,25.343,3.792z"/>
	</g>
</g>
</svg>
