<?xml version="1.0" encoding="utf-8"?>
<!-- Generator: Adobe Illustrator 15.0.2, SVG Export Plug-In . SVG Version: 6.00 Build 0)  -->
<!DOCTYPE svg PUBLIC "-//W3C//DTD SVG 1.1//EN" "http://www.w3.org/Graphics/SVG/1.1/DTD/svg11.dtd">
<svg version="1.1" id="Layer_1" xmlns="http://www.w3.org/2000/svg" xmlns:xlink="http://www.w3.org/1999/xlink" x="0px" y="0px"
	 width="247.125px" height="41.732px" viewBox="0 0 247.125 41.732" enable-background="new 0 0 247.125 41.732"
	 xml:space="preserve">
<g>
	<polygon fill="#002542" points="21.221,0 37.461,0 47.069,11.039 30.201,11.039 28.261,8.974 11.755,8.974 	"/>
	<polygon fill="#002542" points="17.256,40.197 9.488,31.113 26.212,31.113 28.462,29.018 45.241,29.018 33.502,40.197 	"/>
	<polygon fill="#002542" points="0,20.098 9.67,10.982 26.184,10.982 16.179,20.095 24.211,29.062 7.725,29.062 	"/>
	<path fill="#002542" d="M69.474,21.041h-6.519c-0.684-0.031-1.224-0.594-1.23-1.277c-0.002-0.147,0.018-0.291,0.059-0.434
		l0.554-1.63c0.798-2.271,3.087-3.633,5.572-3.652h8.757l-0.691,2.009h-6.208c-1.627,0-3.04,0.592-3.458,1.859l-0.022,0.063
		l-0.085,0.22c-0.097,0.298-0.271,0.924-0.271,0.924h7.802c0.682,0.033,1.22,0.593,1.23,1.276c0.001,0.146-0.018,0.291-0.061,0.434
		l-0.654,1.913c-0.869,1.972-2.972,3.366-5.49,3.38h-9.132l0.743-2.122h6.772c1.609,0.012,2.723-0.591,3.095-1.66l0.138-0.372
		l0.059-0.174c0.069-0.244,0.121-0.491,0.152-0.743L69.474,21.041z"/>
	<path fill="#002542" d="M41.434,17.741c0.798-2.27,3.09-3.636,5.592-3.653h8.808l-0.692,2.013h-6.277
		c-1.627,0-3.04,0.589-3.46,1.854l-1.664,5.032c-0.021,0.076-0.031,0.155-0.025,0.235c0.001,0.441,0.347,0.805,0.787,0.827h1.453
		c1.626,0,2.727-0.604,3.109-1.673l0.464-1.302h-2.452l0.65-1.907h6.59l-1.245,3.622c-0.87,1.973-2.972,3.366-5.492,3.381h-6.347
		c-1.05-0.004-1.903-0.85-1.915-1.9c-0.005-0.23,0.034-0.463,0.12-0.68L41.434,17.741z"/>
	<path fill="#002542" d="M26.129,26.17h-0.187c-0.746,0.018-1.363-0.568-1.383-1.314c-0.004-0.157,0.021-0.316,0.072-0.471
		l0.127-0.37l3.421-9.939h13.133l-0.692,2.013h-8.351c-0.41-0.008-0.782,0.239-0.933,0.62l-0.785,2.443h6.896L36.8,21.068h-6.897
		l-0.744,2.229c-0.096,0.297-0.071,0.743,0.633,0.743h8.544l-0.718,2.129H26.129z"/>
	<path fill="#002542" d="M55.721,26.17h-0.263c-0.736-0.009-1.339-0.587-1.378-1.32c-0.002-0.151,0.021-0.304,0.066-0.448
		l0.115-0.387l0.119-0.333l3.303-9.608h4.28l-4.161,12.082h-2.088L55.721,26.17z"/>
	<path fill="#002542" d="M86.252,19.535H87.5c0.614,0.02,1.216-0.174,1.708-0.543c0.479-0.381,0.829-0.901,1.002-1.485
		c0.208-0.488,0.183-1.046-0.066-1.511c-0.248-0.379-0.727-0.567-1.438-0.567c-0.579,0.01-1.136,0.213-1.586,0.575
		c-0.499,0.37-0.866,0.891-1.044,1.487h-1.486v-0.05c0.271-0.976,0.884-1.827,1.729-2.396c0.821-0.57,1.799-0.874,2.801-0.871
		c1.104,0,1.904,0.295,2.4,0.882c0.495,0.589,0.575,1.419,0.242,2.487c-0.193,0.592-0.519,1.128-0.956,1.57
		c-0.451,0.464-0.994,0.821-1.594,1.056c0.48,0.195,0.856,0.577,1.04,1.064c0.176,0.566,0.156,1.177-0.059,1.732
		c-0.299,1.048-0.957,1.957-1.857,2.57c-0.915,0.6-1.989,0.91-3.084,0.889c-0.85,0.045-1.679-0.278-2.276-0.883
		c-0.552-0.592-0.642-1.438-0.268-2.546l0.032-0.048h1.487c-0.222,0.518-0.192,1.107,0.079,1.601
		c0.313,0.411,0.814,0.63,1.326,0.581c0.668,0.005,1.321-0.207,1.858-0.607c0.539-0.391,0.938-0.943,1.139-1.579
		c0.249-0.766,0.241-1.321-0.025-1.66c-0.264-0.339-0.759-0.507-1.486-0.505h-1.277l0.09-0.294l0.175-0.558l0.029-0.089
		L86.252,19.535z"/>
	<path fill="#002542" d="M90.753,24.973c0.329,0,0.685-0.35,1.071-1.047c0.526-1.023,0.976-2.084,1.345-3.171l1.215-3.367h4.96
		l-2.404,7.589h0.929l-1.315,4.162h-1.557l0.917-2.902h-4.67l-0.917,2.902h-1.564l1.316-4.162h0.674V24.973z M94.725,20.755
		c-0.356,0.976-0.7,1.811-1.029,2.506c-0.275,0.608-0.62,1.181-1.026,1.712h2.705l1.98-6.223h-1.902L94.725,20.755z"/>
	<path fill="#002542" d="M99.213,21.709c0.351-1.229,1.004-2.354,1.898-3.267c0.728-0.768,1.735-1.208,2.794-1.222
		c0.869-0.07,1.676,0.449,1.969,1.27c0.337,0.848,0.301,1.919-0.108,3.219l-0.07,0.219c-0.353,1.227-1.007,2.348-1.902,3.261
		c-0.727,0.763-1.729,1.199-2.782,1.213c-0.871,0.069-1.683-0.45-1.981-1.271c-0.337-0.842-0.299-1.913,0.115-3.216L99.213,21.709z
		 M100.7,21.931c-0.286,0.743-0.397,1.54-0.323,2.333c0.04,0.52,0.494,0.906,1.014,0.87c0.006,0,0.014-0.002,0.022-0.003
		c0.542,0,1.057-0.306,1.546-0.917c0.527-0.687,0.925-1.467,1.174-2.299l0.07-0.218c0.275-0.74,0.38-1.534,0.308-2.322
		c-0.021-0.515-0.455-0.914-0.97-0.893c-0.012,0-0.024,0.001-0.036,0.001c-0.553,0-1.074,0.309-1.564,0.924
		c-0.526,0.684-0.92,1.461-1.163,2.29L100.7,21.931z"/>
	<path fill="#002542" d="M112.587,22.088c-0.333,1.175-0.924,2.26-1.731,3.174c-0.604,0.706-1.479,1.121-2.408,1.141
		c-0.348,0.014-0.692-0.081-0.984-0.271c-0.27-0.196-0.469-0.473-0.569-0.793l-1.366,4.297h-1.564l3.875-12.257h1.327l-0.191,1.064
		c0.313-0.368,0.692-0.675,1.115-0.911c0.38-0.207,0.807-0.314,1.24-0.314c0.791-0.042,1.484,0.517,1.608,1.301
		c0.231,0.866,0.125,1.996-0.315,3.39L112.587,22.088z M111.078,21.915c0.292-0.791,0.418-1.635,0.372-2.474
		c-0.074-0.622-0.387-0.93-0.94-0.93c-0.35,0.006-0.692,0.118-0.977,0.32c-0.332,0.231-0.621,0.52-0.854,0.852l-1.404,4.424
		c0.013,0.285,0.128,0.56,0.326,0.771c0.222,0.19,0.512,0.288,0.805,0.269c0.602-0.034,1.151-0.347,1.486-0.847
		c0.507-0.668,0.884-1.424,1.115-2.229L111.078,21.915z"/>
	<path fill="#002542" d="M113.096,21.709c0.35-1.229,1.003-2.354,1.898-3.267c0.729-0.767,1.736-1.208,2.794-1.22
		c0.867-0.067,1.675,0.452,1.968,1.273c0.338,0.846,0.301,1.918-0.107,3.213l-0.07,0.222c-0.353,1.229-1.007,2.351-1.902,3.262
		c-0.726,0.762-1.729,1.199-2.782,1.21c-0.872,0.072-1.683-0.45-1.98-1.271c-0.336-0.842-0.298-1.913,0.116-3.216L113.096,21.709z
		 M114.582,21.931c-0.287,0.743-0.396,1.54-0.323,2.333c0.04,0.52,0.495,0.906,1.014,0.87c0.008,0,0.016-0.002,0.023-0.003
		c0.542,0,1.057-0.306,1.544-0.917c0.529-0.687,0.927-1.467,1.174-2.299l0.071-0.218c0.275-0.74,0.38-1.534,0.308-2.322
		c-0.021-0.515-0.456-0.914-0.969-0.893c-0.013,0-0.027,0.001-0.038,0.001c-0.552,0-1.074,0.309-1.564,0.924
		c-0.526,0.684-0.92,1.461-1.163,2.29L114.582,21.931z"/>
	<path fill="#002542" d="M118.981,26.244l2.8-8.846h2.876c0.903,0,1.56,0.205,1.969,0.618c0.409,0.409,0.49,1.009,0.241,1.801
		c-0.142,0.437-0.384,0.832-0.705,1.155c-0.332,0.335-0.735,0.591-1.183,0.743c0.417,0.08,0.771,0.356,0.947,0.742
		c0.156,0.417,0.156,0.878,0,1.297c-0.211,0.763-0.683,1.432-1.333,1.883c-0.687,0.425-1.482,0.64-2.289,0.61h-3.343L118.981,26.244
		z M121.768,22.35L120.931,25h1.78c0.375,0.01,0.744-0.11,1.041-0.343c0.313-0.265,0.537-0.618,0.642-1.014
		c0.141-0.313,0.141-0.669,0-0.979c-0.204-0.257-0.527-0.384-0.851-0.334h-1.779L121.768,22.35z M122.138,21.18h1.412
		c0.384,0.008,0.761-0.105,1.078-0.321c0.31-0.231,0.534-0.561,0.64-0.931c0.145-0.313,0.127-0.677-0.049-0.973
		c-0.262-0.237-0.614-0.344-0.962-0.3h-1.319L122.138,21.18z"/>
	<path fill="#002542" d="M129.279,20.671h1.579c0.864,0,1.483,0.259,1.858,0.779c0.371,0.597,0.433,1.337,0.163,1.984
		c-0.239,0.813-0.734,1.53-1.407,2.044c-0.684,0.503-1.516,0.766-2.364,0.741h-3.147l2.802-8.842h1.564L129.279,20.671z
		 M128.87,21.945l-0.958,3.036h1.578c0.414,0.005,0.813-0.151,1.116-0.436c0.317-0.297,0.552-0.667,0.683-1.083
		c0.128-0.35,0.128-0.735,0-1.087c-0.161-0.312-0.503-0.484-0.851-0.435h-1.586L128.87,21.945z"/>
	<path fill="#002542" d="M135.546,26.402c-0.991,0-1.66-0.405-2.007-1.221c-0.346-0.814-0.317-1.859,0.087-3.137l0.122-0.371
		c0.347-1.217,0.99-2.325,1.872-3.231c0.694-0.747,1.658-1.182,2.676-1.212c0.909,0,1.503,0.362,1.786,1.084
		c0.282,0.723,0.236,1.68-0.137,2.867l-0.295,0.935h-4.49c-0.272,0.71-0.357,1.478-0.25,2.229c0.105,0.53,0.604,0.888,1.141,0.817
		c0.408,0.003,0.814-0.073,1.196-0.219c0.399-0.156,0.775-0.367,1.113-0.63l0.179,1.03c-0.404,0.323-0.854,0.581-1.337,0.77
		C136.674,26.317,136.111,26.415,135.546,26.402z M137.905,18.496c-0.502,0.035-0.964,0.287-1.267,0.689
		c-0.442,0.5-0.787,1.076-1.018,1.702v0.04h2.875l0.065-0.192c0.201-0.519,0.267-1.081,0.188-1.632
		c-0.071-0.399-0.443-0.665-0.843-0.605V18.496z"/>
	<path fill="#002542" d="M140.699,26.244h-1.572l0.523-1.659h1.572L140.699,26.244z"/>
	<path fill="#002542" d="M148.765,20.888h-0.744l-1.686,5.356h-1.564l3.77-11.888h1.569l-1.639,5.167h0.798l4.224-5.167h2.019
		l-5.291,5.885l1.648,6.003h-1.793L148.765,20.888z"/>
	<path fill="#002542" d="M156.862,26.244c0.012-0.247,0.034-0.482,0.067-0.701c0.031-0.219,0.076-0.436,0.134-0.647
		c-0.345,0.425-0.755,0.792-1.216,1.089c-0.403,0.275-0.877,0.425-1.366,0.435c-0.71,0-1.197-0.235-1.461-0.706
		c-0.261-0.47-0.261-1.107,0-1.917c0.228-0.818,0.735-1.528,1.435-2.012c0.753-0.481,1.633-0.724,2.527-0.697h1.271l0.29-0.907
		c0.17-0.401,0.196-0.855,0.073-1.276c-0.153-0.31-0.486-0.485-0.827-0.44c-0.378,0.008-0.739,0.148-1.018,0.399
		c-0.314,0.262-0.546,0.611-0.666,1.002h-1.485v-0.045c0.214-0.741,0.681-1.39,1.317-1.831c0.674-0.506,1.5-0.777,2.344-0.766
		c0.673-0.056,1.329,0.236,1.734,0.779c0.36,0.516,0.392,1.248,0.097,2.196l-1.307,4.09c-0.106,0.322-0.193,0.65-0.256,0.986
		c-0.059,0.309-0.091,0.626-0.101,0.94h-1.579L156.862,26.244z M155.203,25.131c0.449-0.016,0.883-0.164,1.247-0.429
		c0.4-0.262,0.736-0.609,0.984-1.019l0.476-1.563h-1.297c-0.469,0.004-0.918,0.18-1.265,0.494c-0.366,0.308-0.639,0.711-0.781,1.166
		c-0.133,0.315-0.147,0.668-0.041,0.992C154.652,25.022,154.923,25.166,155.203,25.131z"/>
	<path fill="#002542" d="M165.014,26.244h-1.572l1.019-3.206c-0.233,0.067-0.472,0.124-0.71,0.158
		c-0.223,0.034-0.445,0.053-0.669,0.055c-0.934,0-1.585-0.274-1.95-0.817c-0.367-0.548-0.367-1.393,0-2.532l0.794-2.503h1.557
		l-0.795,2.503c-0.249,0.786-0.307,1.333-0.175,1.632c0.131,0.3,0.455,0.444,0.97,0.438c0.226,0,0.455-0.02,0.679-0.063
		c0.238-0.042,0.472-0.1,0.703-0.171l1.378-4.354h1.571L165.014,26.244z"/>
	<path fill="#002542" d="M168.944,26.402c-0.991,0-1.66-0.405-2.007-1.221c-0.347-0.814-0.316-1.859,0.087-3.137l0.123-0.371
		c0.35-1.217,0.997-2.328,1.887-3.231c0.693-0.747,1.656-1.182,2.675-1.212c0.908,0,1.503,0.362,1.786,1.084
		c0.283,0.723,0.237,1.68-0.137,2.867l-0.294,0.935h-4.503c-0.271,0.71-0.356,1.478-0.248,2.229c0.106,0.53,0.604,0.888,1.141,0.817
		c0.41,0.003,0.815-0.073,1.196-0.219c0.4-0.156,0.775-0.367,1.116-0.63l0.178,1.03c-0.405,0.323-0.856,0.581-1.339,0.77
		C170.075,26.317,169.51,26.415,168.944,26.402z M171.302,18.496c-0.501,0.035-0.963,0.287-1.266,0.689
		c-0.445,0.503-0.791,1.088-1.022,1.716v0.041h2.875l0.063-0.188c0.202-0.521,0.267-1.082,0.189-1.636
		c-0.063-0.401-0.437-0.68-0.84-0.621V18.496z"/>
	<path fill="#002542" d="M175.593,25.131c0.419-0.018,0.815-0.188,1.115-0.48c0.383-0.343,0.662-0.789,0.806-1.281h1.393v0.046
		c-0.243,0.852-0.755,1.599-1.46,2.132c-0.633,0.526-1.427,0.822-2.251,0.839c-0.989,0-1.635-0.422-1.938-1.264
		c-0.303-0.841-0.257-1.9,0.137-3.17l0.1-0.31c0.35-1.208,0.989-2.313,1.858-3.217c0.712-0.773,1.714-1.217,2.764-1.226
		c0.703-0.045,1.37,0.315,1.712,0.931c0.346,0.605,0.367,1.389,0.063,2.354h-1.474c0.187-0.459,0.221-0.971,0.096-1.454
		c-0.113-0.344-0.448-0.564-0.811-0.533c-0.556,0-1.067,0.306-1.534,0.916c-0.499,0.679-0.875,1.442-1.113,2.25l-0.102,0.313
		c-0.272,0.735-0.39,1.521-0.349,2.304c0.02,0.491,0.432,0.873,0.921,0.854C175.55,25.134,175.572,25.134,175.593,25.131z"/>
	<path fill="#002542" d="M186.846,18.655h-2.343l-2.404,7.589h-1.564l2.403-7.578h-2.306l0.401-1.268h6.225L186.846,18.655z"/>
	<path fill="#002542" d="M185.029,26.244l2.802-8.846h2.875c0.903,0,1.56,0.205,1.968,0.618c0.409,0.409,0.489,1.009,0.242,1.801
		c-0.142,0.437-0.384,0.832-0.706,1.155c-0.33,0.335-0.735,0.591-1.182,0.743c0.418,0.08,0.771,0.356,0.948,0.742
		c0.155,0.417,0.155,0.878,0,1.297c-0.211,0.763-0.683,1.432-1.333,1.883c-0.682,0.422-1.47,0.634-2.27,0.606H185.029z
		 M187.815,22.35L186.979,25h1.781c0.375,0.01,0.742-0.11,1.04-0.343c0.317-0.263,0.543-0.616,0.65-1.014
		c0.139-0.313,0.139-0.669,0-0.979c-0.205-0.257-0.528-0.384-0.852-0.334h-1.779L187.815,22.35z M188.188,21.18h1.411
		c0.384,0.008,0.76-0.105,1.079-0.321c0.311-0.231,0.538-0.559,0.645-0.931c0.146-0.313,0.129-0.677-0.047-0.973
		c-0.261-0.237-0.614-0.344-0.962-0.3h-1.32L188.188,21.18z"/>
	<path fill="#002542" d="M193.035,21.709c0.352-1.229,1.004-2.354,1.899-3.267c0.729-0.768,1.735-1.208,2.793-1.222
		c0.87-0.07,1.676,0.449,1.97,1.27c0.337,0.848,0.3,1.919-0.107,3.219l-0.072,0.219c-0.354,1.227-1.007,2.348-1.902,3.261
		c-0.726,0.763-1.729,1.199-2.782,1.213c-0.872,0.069-1.682-0.45-1.981-1.271c-0.336-0.842-0.299-1.913,0.116-3.216L193.035,21.709z
		 M194.521,21.931c-0.286,0.743-0.396,1.54-0.324,2.333c0.041,0.52,0.495,0.906,1.014,0.87c0.01,0,0.017-0.002,0.028-0.003
		c0.542,0,1.057-0.306,1.544-0.917c0.529-0.687,0.925-1.467,1.174-2.299l0.075-0.206c0.274-0.739,0.379-1.533,0.309-2.319
		c-0.023-0.516-0.456-0.914-0.97-0.894c-0.013,0-0.025,0-0.038,0.002c-0.553,0-1.074,0.309-1.563,0.924
		c-0.527,0.685-0.923,1.463-1.164,2.287L194.521,21.931z"/>
	<path fill="#002542" d="M200.592,26.244h-1.572l0.524-1.659h1.572L200.592,26.244z"/>
	<path fill="#002542" d="M212.576,20.827h-0.476l-1.712,5.417h-1.557l1.712-5.405h-0.52l-4.249,5.405h-1.947l5.257-6.39
		l-1.282-5.529h1.895l0.792,5.167h0.475l1.639-5.167h1.556l-1.637,5.167h0.452l4.005-5.167h1.887l-4.737,5.514l1.197,6.405h-1.948
		L212.576,20.827z"/>
	<path fill="#002542" d="M222.781,17.388h1.563l-2.8,8.856h-1.564l1.902-6.003h-0.044l-4.7,6.003h-1.557l2.802-8.846h1.566
		l-1.912,6.017h0.044L222.781,17.388z"/>
	<path fill="#002542" d="M225.79,21.131h1.249c0.401,0.013,0.791-0.109,1.115-0.349c0.31-0.241,0.536-0.574,0.646-0.951
		c0.131-0.316,0.12-0.674-0.029-0.983c-0.219-0.284-0.572-0.427-0.925-0.371c-0.844,0.035-1.583,0.583-1.857,1.379H224.5v-0.045
		c0.215-0.773,0.708-1.434,1.383-1.858c0.686-0.456,1.49-0.693,2.314-0.686c0.883,0,1.534,0.22,1.951,0.668
		c0.417,0.446,0.496,1.063,0.244,1.855c-0.139,0.431-0.379,0.821-0.698,1.14c-0.333,0.34-0.734,0.605-1.174,0.779
		c0.353,0.151,0.631,0.438,0.773,0.794c0.132,0.414,0.122,0.861-0.032,1.267c-0.243,0.808-0.771,1.5-1.484,1.947
		c-0.744,0.46-1.607,0.695-2.482,0.681c-0.699,0.036-1.383-0.216-1.891-0.698c-0.46-0.467-0.543-1.131-0.247-1.992l0.024-0.051
		h1.486c-0.152,0.363-0.128,0.773,0.067,1.116c0.23,0.31,0.605,0.473,0.987,0.431c0.449-0.006,0.882-0.163,1.231-0.444
		c0.351-0.265,0.609-0.629,0.743-1.045c0.156-0.496,0.143-0.857-0.037-1.081c-0.269-0.253-0.637-0.371-1.003-0.326h-1.244
		l0.104-0.329l0.17-0.53L225.79,21.131z"/>
	<path fill="#002542" d="M235.181,26.244h-1.564l1.194-3.788h-2.82l-1.185,3.788h-1.568l2.8-8.846h1.565l-1.209,3.811h2.82
		l1.208-3.811h1.563L235.181,26.244z"/>
	<path fill="#002542" d="M239.618,20.671h1.579c0.862,0,1.482,0.259,1.856,0.779c0.371,0.597,0.431,1.337,0.164,1.984
		c-0.24,0.813-0.732,1.53-1.408,2.044c-0.684,0.503-1.515,0.766-2.363,0.741h-3.149l2.799-8.842h1.565L239.618,20.671z
		 M239.209,21.945l-0.958,3.036h1.579c0.413,0.005,0.813-0.151,1.114-0.436c0.319-0.297,0.554-0.667,0.684-1.083
		c0.129-0.35,0.129-0.735,0-1.087c-0.161-0.312-0.503-0.484-0.85-0.435h-1.586L239.209,21.945z"/>
	<path fill="#002542" d="M244.671,26.244H243.1l0.523-1.659h1.59L244.671,26.244z"/>
</g>
</svg>
