<?xml version="1.0" encoding="utf-8"?>
<!-- Generator: Adobe Illustrator 15.0.2, SVG Export Plug-In . SVG Version: 6.00 Build 0)  -->
<!DOCTYPE svg PUBLIC "-//W3C//DTD SVG 1.1//EN" "http://www.w3.org/Graphics/SVG/1.1/DTD/svg11.dtd">
<svg version="1.1" id="Layer_1" xmlns="http://www.w3.org/2000/svg" xmlns:xlink="http://www.w3.org/1999/xlink" x="0px" y="0px"
	 width="136.375px" height="72.566px" viewBox="0 0 136.375 72.566" enable-background="new 0 0 136.375 72.566"
	 xml:space="preserve">
<g id="Group" transform="matrix(1,0,0,1,-231,-57)">
	<g id="path1_fill" transform="matrix(1,0,0,1,250.298,57)">
		<path fill="#FFFFFF" d="M18.035,0h28.58l16.898,19.422H33.832l-3.412-3.636H1.38L18.035,0z"/>
	</g>
	<g id="path2_fill" transform="matrix(1,0,0,1,246.578,104.646)">
		<path fill="#FFFFFF" d="M14.785,23.073L1.114,7.096h29.428l3.955-3.688h29.521L43.364,23.073H14.785z"/>
	</g>
	<g id="path3_fill" transform="matrix(1,0,0,1,231,75.0317)">
		<path fill="#FFFFFF" d="M0,17.33L17.015,1.29h29.056L28.462,17.326l14.132,15.778H13.588L0,17.33z"/>
	</g>
	<g id="path4_fill" transform="matrix(1,0,0,1,328.917,80.0789)">
		<path fill="#FFFFFF" d="M24.313,13.932l-11.47-0.004c-1.192-0.058-2.152-1.041-2.161-2.248c-0.001-0.222,0.029-0.559,0.101-0.761
			l0.976-2.847c1.406-3.996,5.433-6.39,9.834-6.422l15.408,0.003l-1.217,3.539H24.831c-2.865,0.017-5.346,1.037-6.086,3.261
			l-0.038,0.11l-0.148,0.383c-0.169,0.523-0.477,1.626-0.477,1.626l1.924,0.003l11.817,0.01c1.193,0.058,2.148,1.038,2.161,2.243
			c0.003,0.225-0.028,0.56-0.102,0.763l-1.152,3.37c-1.528,3.469-5.261,5.919-9.661,5.951L7.001,22.896l1.291-3.731h11.913
			c2.865-0.015,4.8-1.061,5.476-2.939l0.243-0.676l0.104-0.303c0.171-0.527,0.27-1.327,0.27-1.327L24.313,13.932z"/>
	</g>
	<g id="path5_fill" transform="matrix(1,0,0,1,295.557,80.1283)">
		<path fill="#FFFFFF" d="M8.341,8.078c1.405-3.998,5.438-6.393,9.838-6.423l15.495,0.001l-1.212,3.538H21.414
			c-2.862,0.015-5.346,1.036-6.086,3.262l-2.926,8.85c-0.045,0.13-0.049,0.274-0.049,0.415c0.007,0.776,0.617,1.415,1.386,1.449
			h2.555c2.861-0.018,4.799-1.063,5.471-2.938l0.818-2.298h-4.314l1.14-3.356h11.597l-2.189,6.383
			c-1.525,3.47-5.26,5.921-9.662,5.953L8.25,22.91l-0.266,0.004c-1.84,0-3.349-1.494-3.369-3.338
			c-0.004-0.403,0.06-0.835,0.209-1.194L8.341,8.078z"/>
	</g>
	<g id="path6_fill" transform="matrix(1,0,0,1,271.328,80.1314)">
		<path fill="#FFFFFF" d="M5.636,22.91H5.308c-1.337-0.058-2.411-1.075-2.424-2.32c-0.001-0.23,0.034-0.579,0.118-0.789l0.222-0.66
			L9.242,1.655h23.103L31.13,5.19H16.441c-0.927,0-1.496,0.643-1.642,1.089c-0.097,0.299-1.376,4.299-1.376,4.299h12.135
			l-1.143,3.353H12.278c0,0-1.247,3.662-1.333,3.916c-0.174,0.524-0.121,1.321,1.108,1.321h15.062l-1.26,3.745L5.636,22.91z"/>
	</g>
	<g id="path7_fill" transform="matrix(1,0,0,1,319.793,80.132)">
		<path fill="#FFFFFF" d="M9.24,22.91H9.103H8.774c-1.337-0.059-2.41-1.075-2.426-2.32c0-0.231,0.036-0.579,0.119-0.789l0.221-0.66
			l0.207-0.588l5.813-16.898h7.529L12.915,22.91H9.24z"/>
	</g>
</g>
</svg>
