<svg id="Layer_1" data-name="Layer 1" xmlns="http://www.w3.org/2000/svg" viewBox="0 0 660.01 108.2"><defs><style>.cls-1,.cls-2{fill:#0e2244;}.cls-1{fill-rule:evenodd;}</style></defs><title>egis-logo-ru-blue</title><polygon class="cls-1" points="57.12 0 100.84 0 126.7 29.71 81.29 29.71 76.07 24.15 31.64 24.15 57.12 0"/><polygon class="cls-1" points="46.45 108.2 25.54 83.75 70.56 83.75 76.61 78.11 121.78 78.11 90.18 108.2 46.45 108.2"/><polygon class="cls-1" points="0 54.1 26.03 29.56 70.48 29.56 43.55 54.09 65.17 78.23 20.79 78.23 0 54.1"/><path class="cls-1" d="M203.95,88H186.4a3.48,3.48,0,0,1-3.31-3.44,3.93,3.93,0,0,1,.16-1.17L184.74,79c2.15-6.11,8.31-9.78,15-9.83h23.57l-1.86,5.41H204.74c-4.38,0-8.18,1.59-9.31,5l-0.06.17-0.23.59c-0.26.8-.73,2.49-0.73,2.49h21a3.48,3.48,0,0,1,3.31,3.43,3.92,3.92,0,0,1-.16,1.17l-1.76,5.15c-2.34,5.31-8,9.06-14.78,9.1l-24.58,0,2-5.71h18.23C202,96,205,94.38,206,91.5l0.37-1,0.16-.47a13.12,13.12,0,0,0,.41-2Z" transform="translate(-16.94 -31.36)"/><path class="cls-1" d="M128.47,79.11c2.15-6.11,8.32-9.78,15.05-9.83h23.71l-1.86,5.41h-16.9c-4.38,0-8.18,1.59-9.31,5l-4.48,13.54a1.9,1.9,0,0,0-.07.64,2.23,2.23,0,0,0,2.12,2.22h3.91c4.38,0,7.34-1.62,8.37-4.5l1.25-3.51h-6.6l1.75-5.13h17.74L159.8,92.7c-2.34,5.31-8,9.06-14.78,9.1H127.93a5.17,5.17,0,0,1-5.15-5.11,4.72,4.72,0,0,1,.32-1.83Z" transform="translate(-16.94 -31.36)"/><path class="cls-1" d="M87.27,101.8h-0.5A3.63,3.63,0,0,1,83.24,97l0.34-1,9.21-26.75h35.35l-1.86,5.41H103.8a2.64,2.64,0,0,0-2.51,1.67l-2.11,6.58h18.56L116,88.07H97.43l-2,6c-0.26.8-.19,2,1.7,2h23l-1.93,5.73H87.27Z" transform="translate(-16.94 -31.36)"/><path class="cls-1" d="M166.93,101.8h-0.71a3.75,3.75,0,0,1-3.71-3.55,3.84,3.84,0,0,1,.18-1.21L163,96l0.32-.9,8.89-25.86h11.52l-11.2,32.52h-5.62Z" transform="translate(-16.94 -31.36)"/><path class="cls-2" d="M249.11,83.94h3.36a7.25,7.25,0,0,0,4.6-1.46,8.06,8.06,0,0,0,2.7-4,4.73,4.73,0,0,0-.18-4.07q-1-1.52-3.87-1.52a7,7,0,0,0-4.27,1.55,7.75,7.75,0,0,0-2.81,4h-4l0-.13a11.45,11.45,0,0,1,4.65-6.45,13.14,13.14,0,0,1,7.54-2.35q4.46,0,6.46,2.38t0.65,6.69a10.74,10.74,0,0,1-2.57,4.23,12.23,12.23,0,0,1-4.29,2.84,5,5,0,0,1,2.8,2.86,7.12,7.12,0,0,1-.16,4.67,12.55,12.55,0,0,1-5,6.92,14.66,14.66,0,0,1-8.3,2.39,8,8,0,0,1-6.13-2.38q-2.23-2.38-.72-6.85l0.09-.13h4a4.92,4.92,0,0,0,.21,4.31A4,4,0,0,0,247.44,99a8.23,8.23,0,0,0,5-1.63,8.36,8.36,0,0,0,3.07-4.25q1-3.1-.07-4.47t-4-1.36H248l0.24-.79,0.47-1.5,0.08-.24Z" transform="translate(-16.94 -31.36)"/><path class="cls-2" d="M261.23,98.58q1.32,0,2.88-2.82a62.46,62.46,0,0,0,3.62-8.54L271,78.16h13.35l-6.47,20.43h2.5l-3.54,11.2h-4.19l2.47-7.81H262.55l-2.47,7.81h-4.21l3.54-11.2h1.82Zm10.69-11.36q-1.44,3.94-2.77,6.75a23.9,23.9,0,0,1-2.76,4.61h7.28L279,81.83h-5.12Z" transform="translate(-16.94 -31.36)"/><path class="cls-2" d="M284,89.8A20.7,20.7,0,0,1,289.11,81a10.55,10.55,0,0,1,7.52-3.29,5.18,5.18,0,0,1,5.3,3.42q1.36,3.42-.29,8.66l-0.19.59a20.7,20.7,0,0,1-5.12,8.78,10.52,10.52,0,0,1-7.49,3.26A5.22,5.22,0,0,1,283.51,99q-1.36-3.39.31-8.65Zm4,0.59a13.93,13.93,0,0,0-.87,6.28A2.54,2.54,0,0,0,289.92,99q2.19,0,4.16-2.46a19.19,19.19,0,0,0,3.16-6.19l0.19-.59a14.24,14.24,0,0,0,.83-6.25,2.51,2.51,0,0,0-2.71-2.4q-2.23,0-4.21,2.49a18.64,18.64,0,0,0-3.13,6.16Z" transform="translate(-16.94 -31.36)"/><path class="cls-2" d="M320,90.81a22,22,0,0,1-4.66,8.55,8.79,8.79,0,0,1-6.48,3.07,4.51,4.51,0,0,1-2.65-.73,4.21,4.21,0,0,1-1.53-2.14L301,111.13h-4.21l10.43-33h3.57L310.28,81a10.9,10.9,0,0,1,3-2.45,7,7,0,0,1,3.34-.85,4.16,4.16,0,0,1,4.33,3.5q0.93,3.5-.85,9.13Zm-4.06-.46a16.59,16.59,0,0,0,1-6.67q-0.3-2.49-2.53-2.49a4.62,4.62,0,0,0-2.63.86,9.39,9.39,0,0,0-2.3,2.29L305.7,96.25a3.22,3.22,0,0,0,.88,2.07,3,3,0,0,0,2.17.73,5.18,5.18,0,0,0,4-2.28,18.31,18.31,0,0,0,3-6Z" transform="translate(-16.94 -31.36)"/><path class="cls-2" d="M321.37,89.8A20.7,20.7,0,0,1,326.48,81,10.55,10.55,0,0,1,334,77.72a5.18,5.18,0,0,1,5.3,3.42q1.36,3.42-.29,8.66l-0.19.59a20.72,20.72,0,0,1-5.12,8.78,10.52,10.52,0,0,1-7.49,3.26A5.22,5.22,0,0,1,320.88,99q-1.36-3.39.31-8.65Zm4,0.59a13.92,13.92,0,0,0-.87,6.28A2.54,2.54,0,0,0,327.29,99q2.19,0,4.16-2.46a19.19,19.19,0,0,0,3.16-6.19l0.19-.59a14.24,14.24,0,0,0,.83-6.25,2.51,2.51,0,0,0-2.71-2.4q-2.23,0-4.21,2.49a18.63,18.63,0,0,0-3.13,6.16Z" transform="translate(-16.94 -31.36)"/><path class="cls-2" d="M337.21,102l7.54-23.81h7.74q3.65,0,5.3,1.66t0.65,4.85a7.82,7.82,0,0,1-1.9,3.11,8.1,8.1,0,0,1-3.18,2,3.55,3.55,0,0,1,2.55,2,5,5,0,0,1,0,3.49,9.15,9.15,0,0,1-3.59,5.07,10.94,10.94,0,0,1-6.16,1.64h-9Zm7.5-10.48-2.25,7.13h4.79a4.39,4.39,0,0,0,2.8-.92A5.34,5.34,0,0,0,351.78,95a3.22,3.22,0,0,0,0-2.64,2.48,2.48,0,0,0-2.29-.9h-4.79Zm1-3.15h3.8a5,5,0,0,0,2.9-.87A4.75,4.75,0,0,0,354.13,85a2.8,2.8,0,0,0-.13-2.62,3.26,3.26,0,0,0-2.59-.81h-3.55Z" transform="translate(-16.94 -31.36)"/><path class="cls-2" d="M364.93,87h4.25q3.49,0,5,2.1a5.86,5.86,0,0,1,.44,5.34,10.73,10.73,0,0,1-3.79,5.5,10.23,10.23,0,0,1-6.36,2H356l7.54-23.81h4.21Zm-1.1,3.43-2.58,8.17h4.25a4.29,4.29,0,0,0,3-1.17,6.74,6.74,0,0,0,1.84-2.91,4.28,4.28,0,0,0,0-2.93,2.21,2.21,0,0,0-2.29-1.17h-4.27Z" transform="translate(-16.94 -31.36)"/><path class="cls-2" d="M381.8,102.43q-4,0-5.4-3.29t0.23-8.44l0.33-1A20.44,20.44,0,0,1,382,81a10.23,10.23,0,0,1,7.2-3.26q3.67,0,4.81,2.92t-0.37,7.72l-0.79,2.51H380.76a12,12,0,0,0-.67,6,2.76,2.76,0,0,0,3.07,2.2,8.8,8.8,0,0,0,3.22-.59,12,12,0,0,0,3-1.69l0.48,2.77a13.82,13.82,0,0,1-3.6,2.07A11.77,11.77,0,0,1,381.8,102.43Zm6.35-21.29A4.71,4.71,0,0,0,384.74,83,14.52,14.52,0,0,0,382,87.58l0,0.11h7.74l0.17-.51a8.77,8.77,0,0,0,.51-4.4A2,2,0,0,0,388.15,81.15Z" transform="translate(-16.94 -31.36)"/><path class="cls-2" d="M395.67,102h-4.23l1.41-4.47h4.23Z" transform="translate(-16.94 -31.36)"/><path class="cls-2" d="M417.38,87.58h-2L410.84,102h-4.21l10.15-32H421l-4.41,13.91h2.15l11.37-13.91h5.43L421.3,85.84,425.74,102h-4.83Z" transform="translate(-16.94 -31.36)"/><path class="cls-2" d="M439.18,102q0.05-1,.18-1.89a14.25,14.25,0,0,1,.36-1.74,13.9,13.9,0,0,1-3.27,2.93,6.78,6.78,0,0,1-3.68,1.17q-2.87,0-3.93-1.9t0-5.16A9.72,9.72,0,0,1,432.7,90a11.9,11.9,0,0,1,6.8-1.88h3.42l0.78-2.44a5.15,5.15,0,0,0,.2-3.44,2.17,2.17,0,0,0-2.23-1.18,4.18,4.18,0,0,0-2.74,1.07,5.68,5.68,0,0,0-1.79,2.7l-4,0V84.71a9.08,9.08,0,0,1,3.55-4.93A10.26,10.26,0,0,1,443,77.72a5.27,5.27,0,0,1,4.67,2.09q1.45,2.09.26,5.92l-3.52,11a21.38,21.38,0,0,0-.69,2.66,16.81,16.81,0,0,0-.27,2.53h-4.25Zm-4.47-3a6,6,0,0,0,3.36-1.15,8.63,8.63,0,0,0,2.65-2.74L442,90.9h-3.49a5.13,5.13,0,0,0-3.41,1.33A6.74,6.74,0,0,0,433,95.37a3.77,3.77,0,0,0-.11,2.67A1.78,1.78,0,0,0,434.71,99Z" transform="translate(-16.94 -31.36)"/><path class="cls-2" d="M461.12,102h-4.23l2.74-8.63a14.77,14.77,0,0,1-1.91.43,12,12,0,0,1-1.8.14q-3.77,0-5.25-2.2t0-6.82l2.14-6.73H457l-2.14,6.73q-1,3.19-.47,4.4T457,90.5a10.42,10.42,0,0,0,1.83-.17,14.51,14.51,0,0,0,1.89-.47l3.71-11.71h4.23Z" transform="translate(-16.94 -31.36)"/><path class="cls-2" d="M471.7,102.43q-4,0-5.4-3.29t0.23-8.44l0.33-1A20.44,20.44,0,0,1,471.94,81a10.23,10.23,0,0,1,7.2-3.26q3.67,0,4.81,2.92t-0.37,7.72l-0.79,2.51H470.67a12,12,0,0,0-.67,6,2.76,2.76,0,0,0,3.07,2.2,8.8,8.8,0,0,0,3.22-.59,12,12,0,0,0,3-1.69l0.48,2.77a13.82,13.82,0,0,1-3.6,2.07A11.77,11.77,0,0,1,471.7,102.43Zm6.35-21.29A4.71,4.71,0,0,0,474.64,83a14.52,14.52,0,0,0-2.75,4.62l0,0.11h7.74l0.17-.51a8.77,8.77,0,0,0,.51-4.4A2,2,0,0,0,478.05,81.15Z" transform="translate(-16.94 -31.36)"/><path class="cls-2" d="M489.6,99a4.52,4.52,0,0,0,3-1.29,7.47,7.47,0,0,0,2.17-3.45h3.75l0,0.13a11,11,0,0,1-3.93,5.74,9.77,9.77,0,0,1-6.06,2.25q-4,0-5.22-3.4t0.37-8.53l0.27-.84a20.94,20.94,0,0,1,5-8.66,10.23,10.23,0,0,1,7.44-3.29A4.89,4.89,0,0,1,501,80.16q1.39,2.44.17,6.34H497.2a6.2,6.2,0,0,0,.26-3.91,2.1,2.1,0,0,0-2.18-1.44q-2.25,0-4.13,2.47a19.59,19.59,0,0,0-3,6.05l-0.27.84a15.6,15.6,0,0,0-.94,6.21A2.39,2.39,0,0,0,489.6,99Z" transform="translate(-16.94 -31.36)"/><path class="cls-2" d="M519.89,81.57h-6.31L507.11,102H502.9l6.47-20.4h-6.21l1.08-3.41H521Z" transform="translate(-16.94 -31.36)"/><path class="cls-2" d="M515,102l7.54-23.81h7.74q3.65,0,5.3,1.66t0.65,4.85a7.82,7.82,0,0,1-1.9,3.11,8.1,8.1,0,0,1-3.18,2,3.55,3.55,0,0,1,2.55,2,5,5,0,0,1,0,3.49,9.15,9.15,0,0,1-3.59,5.07A10.94,10.94,0,0,1,524,102h-9Zm7.5-10.48-2.25,7.13h4.79a4.39,4.39,0,0,0,2.8-.92A5.33,5.33,0,0,0,529.59,95a3.22,3.22,0,0,0,0-2.64,2.48,2.48,0,0,0-2.29-.9h-4.79Zm1-3.15h3.8a5,5,0,0,0,2.9-.87A4.76,4.76,0,0,0,531.94,85a2.81,2.81,0,0,0-.13-2.62,3.26,3.26,0,0,0-2.59-.81h-3.55Z" transform="translate(-16.94 -31.36)"/><path class="cls-2" d="M536.55,89.8A20.7,20.7,0,0,1,541.66,81a10.55,10.55,0,0,1,7.52-3.29,5.18,5.18,0,0,1,5.3,3.42q1.36,3.42-.29,8.66l-0.19.59a20.72,20.72,0,0,1-5.12,8.78,10.52,10.52,0,0,1-7.49,3.26A5.22,5.22,0,0,1,536.06,99q-1.36-3.39.31-8.65Zm4,0.59a13.92,13.92,0,0,0-.87,6.28A2.54,2.54,0,0,0,542.48,99q2.19,0,4.16-2.46a19.19,19.19,0,0,0,3.16-6.19L550,89.8a14.24,14.24,0,0,0,.83-6.25,2.51,2.51,0,0,0-2.71-2.4q-2.23,0-4.21,2.49a18.63,18.63,0,0,0-3.13,6.16Z" transform="translate(-16.94 -31.36)"/><path class="cls-2" d="M556.89,102h-4.23l1.41-4.47h4.23Z" transform="translate(-16.94 -31.36)"/><path class="cls-2" d="M589.15,87.42h-1.28L583.26,102h-4.19l4.61-14.55h-1.4L570.84,102H565.6L579.75,84.8,576.3,69.92h5.1l2.13,13.91h1.28l4.41-13.91h4.19L589,83.83h1.22L601,69.92h5.08L593.33,84.76,596.55,102h-5.24Z" transform="translate(-16.94 -31.36)"/><path class="cls-2" d="M616.62,78.16h4.21L613.29,102h-4.21l5.12-16.16-0.12,0L601.43,102h-4.19l7.54-23.81H609l-5.15,16.2,0.12,0Z" transform="translate(-16.94 -31.36)"/><path class="cls-2" d="M624.72,88.24h3.36a4.81,4.81,0,0,0,3-.94,5,5,0,0,0,1.74-2.56,3.24,3.24,0,0,0-.08-2.65,2.64,2.64,0,0,0-2.49-1,5.54,5.54,0,0,0-5,3.72h-4l0-.13a8.64,8.64,0,0,1,3.72-5,11.12,11.12,0,0,1,6.23-1.85q3.57,0,5.25,1.8t0.66,5a7.69,7.69,0,0,1-1.88,3.07,9.36,9.36,0,0,1-3.16,2.1,3.84,3.84,0,0,1,2.08,2.13,5.21,5.21,0,0,1-.08,3.41,9.37,9.37,0,0,1-4,5.24,12.27,12.27,0,0,1-6.68,1.83,6.82,6.82,0,0,1-5.09-1.88q-1.86-1.88-.67-5.36l0.07-.13h4a3.4,3.4,0,0,0,.18,3,2.92,2.92,0,0,0,2.66,1.16A5.36,5.36,0,0,0,627.85,98a5.63,5.63,0,0,0,2-2.81q0.63-2-.1-2.91a3.37,3.37,0,0,0-2.7-.88H623.7l0.28-.88,0.46-1.43Z" transform="translate(-16.94 -31.36)"/><path class="cls-2" d="M650,102h-4.21L649,91.8h-7.59L638.22,102H634l7.54-23.81h4.21l-3.25,10.26h7.59l3.25-10.26h4.21Z" transform="translate(-16.94 -31.36)"/><path class="cls-2" d="M661.94,87h4.25q3.49,0,5,2.1a5.86,5.86,0,0,1,.44,5.34,10.73,10.73,0,0,1-3.79,5.5,10.23,10.23,0,0,1-6.36,2H653l7.54-23.81h4.21Zm-1.1,3.43-2.58,8.17h4.25a4.29,4.29,0,0,0,3-1.17,6.74,6.74,0,0,0,1.84-2.91,4.28,4.28,0,0,0,0-2.93,2.21,2.21,0,0,0-2.29-1.17h-4.27Z" transform="translate(-16.94 -31.36)"/><path class="cls-2" d="M675.54,102h-4.23l1.41-4.47H677Z" transform="translate(-16.94 -31.36)"/></svg>