<?xml version="1.0" encoding="UTF-8" standalone="no"?>
<!DOCTYPE svg PUBLIC "-//W3C//DTD SVG 1.1//EN" "http://www.w3.org/Graphics/SVG/1.1/DTD/svg11.dtd">
<svg width="100%" height="100%" viewBox="0 0 193 66" version="1.1" xmlns="http://www.w3.org/2000/svg" xml:space="preserve" style="fill-rule:evenodd;clip-rule:evenodd;stroke-linejoin:round;stroke-miterlimit:1.41421;">
    <g id="Group" transform="matrix(1,0,0,1,-231,-57)">
        <g id="path1_fill" transform="matrix(1,0,0,1,250.298,57)">
            <path d="M15.544,0L42.217,0L57.988,18.125L30.287,18.125L27.103,14.732L0,14.732L15.544,0Z" style="fill:rgb(0,37,66);"/>
        </g>
        <g id="path2_fill" transform="matrix(1,0,0,1,246.578,104.646)">
            <path d="M12.759,18.354L0,3.444L27.464,3.444L31.155,0L58.708,0L39.431,18.354L12.759,18.354Z" style="fill:rgb(0,37,66);"/>
        </g>
        <g id="path3_fill" transform="matrix(1,0,0,1,231,75.0317)">
            <path d="M0,14.971L15.88,0L42.996,0L26.563,14.966L39.752,29.692L12.681,29.692L0,14.971Z" style="fill:rgb(0,37,66);"/>
        </g>
        <g id="path4_fill" transform="matrix(1,0,0,1,328.917,80.0789)">
            <path d="M16.157,11.462L5.453,11.457C4.341,11.404 3.445,10.486 3.437,9.361C3.435,9.154 3.464,8.838 3.532,8.65L4.441,5.994C5.753,2.264 9.512,0.029 13.62,0L27.999,0.002L26.863,3.305L16.641,3.305C13.968,3.321 11.651,4.273 10.961,6.349L10.926,6.451L10.788,6.808C10.629,7.296 10.342,8.324 10.342,8.324L12.138,8.328L23.167,8.337C24.279,8.39 25.172,9.306 25.183,10.431C25.186,10.64 25.157,10.953 25.088,11.144L24.013,14.288C22.588,17.525 19.104,19.812 14.996,19.842L0,19.829L1.205,16.347L12.323,16.347C14.996,16.332 16.803,15.358 17.433,13.603L17.66,12.972L17.756,12.688C17.917,12.198 18.008,11.451 18.008,11.451L16.157,11.462Z" style="fill:rgb(0,37,66);"/>
        </g>
        <g id="path5_fill" transform="matrix(1,0,0,1,295.557,80.1283)">
            <path d="M3.477,5.995C4.788,2.264 8.551,0.03 12.659,0L27.12,0.002L25.988,3.303L15.677,3.303C13.006,3.318 10.688,4.271 9.997,6.348L7.267,14.607C7.223,14.729 7.221,14.862 7.221,14.996C7.228,15.72 7.796,16.316 8.514,16.348L10.897,16.348C13.569,16.332 15.377,15.357 16.004,13.604L16.767,11.461L12.74,11.461L13.805,8.328L24.628,8.328L22.586,14.286C21.161,17.524 17.676,19.811 13.569,19.84L3.392,19.837L3.144,19.842C1.426,19.842 0.017,18.447 0,16.728C-0.004,16.351 0.055,15.947 0.195,15.612L3.477,5.995Z" style="fill:rgb(0,37,66);"/>
        </g>
        <g id="path6_fill" transform="matrix(1,0,0,1,271.328,80.1314)">
            <path d="M2.569,19.837L2.262,19.837C1.015,19.783 0.012,18.835 0,17.673C-0.002,17.457 0.032,17.133 0.11,16.937L0.317,16.321L5.934,0L27.496,0L26.362,3.3L12.653,3.3C11.787,3.3 11.257,3.9 11.12,4.316C11.03,4.596 9.836,8.328 9.836,8.328L21.161,8.328L20.095,11.459L8.768,11.459C8.768,11.459 7.604,14.876 7.524,15.114C7.363,15.603 7.411,16.346 8.558,16.346L22.615,16.346L21.44,19.84L2.569,19.837Z" style="fill:rgb(0,37,66);"/>
        </g>
        <g id="path7_fill" transform="matrix(1,0,0,1,319.793,80.132)">
            <path d="M2.699,19.837L2.571,19.837L2.264,19.837C1.016,19.782 0.015,18.834 0,17.672C0,17.456 0.034,17.132 0.112,16.936L0.317,16.32L0.51,15.772L5.935,0L12.962,0L6.129,19.837L2.699,19.837Z" style="fill:rgb(0,37,66);"/>
        </g>
    </g>
    <g transform="matrix(0.337515,0,0,1,108.302,-0.402737)">
        <rect x="149.995" y="13.149" width="2.963" height="36.014" style="fill:rgb(0,37,66);fill-opacity:0.2;"/>
    </g>
</svg>
